<?xml version="1.0" encoding="UTF-8"?>
<svg width="375px" height="276px" viewBox="0 0 375 276" version="1.1" xmlns="http://www.w3.org/2000/svg" xmlns:xlink="http://www.w3.org/1999/xlink">
    <g transform="translate(24.000000, 23.000000)">
        <polyline fill="#DAE6FA" points="0.836030651 46.5687002 24.9239166 39.6208022 3.12346462 52.2899359 0.836030651 46.5687002"></polyline>
        <polyline fill="#C3C2ED" points="6.34741081 44.9793192 24.6529712 55.165667 19.109245 41.2981844 6.34741081 44.9793192"></polyline>
        <polyline fill="#E8EDFA" points="16.1128365 65.205169 29.9200178 61.6487666 30.1186603 65.7875084 16.1128365 65.205169"></polyline>
        <polyline fill="#C0CEEA" points="29.9200178 61.6487666 30.1186603 65.7875084 35.4013351 75.5575715 29.9200178 61.6487666"></polyline>
        <polyline fill="#C3C2ED" points="28 224.034295 29.1488543 230.138911 51.4702674 215 28 224.034295"></polyline>
        <polyline fill="#DAE6FA" points="33 222.250487 33 203 46.5780954 217.408882 33 222.250487"></polyline>
        <polyline fill="#A1B1D1" points="19.6849003 91.6200923 22.5990858 89.1786287 36.4416574 103.829323 19.6849003 91.6200923"></polyline>
        <polyline fill="#D0D7F3" points="42.270409 89.1786287 32.3063147 100.815851 22.4308865 93.6211665 42.270409 89.1786287"></polyline>
        <polyline fill="#C0CEEA" points="71.0562579 56.1530853 68.2273136 51.6543032 90.7188287 45.7915001 71.0562579 56.1530853"></polyline>
        <polyline fill="#F0E2FC" points="73.8798746 51.082677 84.4703399 47.6383807 82.869022 36.2995978 73.8798746 51.082677"></polyline>
        <polyline fill="#CFCEF6" points="76.7594309 60.8385834 73.3147707 50.1831502 84.4703399 47.6383807 76.7594309 60.8385834"></polyline>
        <polyline fill="#CFCEF6" points="222.11735 9.18814804 252.716679 3.32802326 222.11735 15.7802145 222.11735 9.18814804"></polyline>
        <polyline fill="#F0E2FC" points="228.527569 8.59471284 229.499091 0.292741867 245.284707 5.90837593 228.527569 8.59471284"></polyline>
        <polyline fill="#C3C2ED" points="227.725388 8.15547131 245.284707 4.79267184 246.720109 18.8036348 227.725388 8.15547131"></polyline>
        <polyline fill="#C3C2ED" points="289.102636 86.0971602 307.130126 81.4537063 307.389486 86.8574976 289.102636 86.0971602"></polyline>
        <polyline fill="#E8EDFA" points="307.130126 81.4537063 307.389486 86.8574976 314.286865 99.6138822 307.130126 81.4537063"></polyline>
        <polyline fill="#A1B1D1" points="301.857332 43.1957023 317.395068 41.105024 319.850042 38.9628906 319.364612 41.9522858 327.081807 54.551807 319.699494 46.1256493 318.884648 49.0985588 316.740707 44.1573644 301.857332 43.1957023"></polyline>
        <polyline fill="#DAE6FA" points="241.548243 64.2082778 245.670671 70.2654998 265.329345 49.2243343 241.548243 64.2082778"></polyline>
        <polyline fill="#F0E2FC" points="266.483562 69.2094003 256.542432 55.0642259 245.318415 62.1360637 266.483562 69.2094003"></polyline>
        <polygon fill="#A1B1D1" points="205.823196 69.3574142 223.854164 74.4539733 209.78514 74.0872928"></polygon>
        <polygon fill="#E8EDFA" points="219.137604 73.1152966 213.831549 63.6673723 210.841303 70.7655127"></polygon>
        <polygon fill="#A1B1D1" points="209.926565 70.4994469 219.110015 73.0946645 216.353599 80.1964695"></polygon>
        <polyline fill="#D0D7F3" points="179.935685 19.2508489 184.24151 26.3468187 195.631493 28.5809052 179.935685 19.2508489"></polyline>
        <polyline fill="#C0CEEA" points="169.101292 35.5640038 179.935685 19.2508489 181.23295 20.0218173 184.24151 26.3468187 169.101292 35.5640038"></polyline>
    </g>
</svg>
